HIERARCHY
ROOT Hips
{
	OFFSET 0.000000 0.000000 0.000000 
	CHANNELS 6 Xposition Yposition Zposition Zrotation Yrotation Xrotation
	JOINT LeftUpLeg
	{
		OFFSET 1.363060 -1.794630 0.839290 
		CHANNELS 3 Zrotation Yrotation Xrotation
		JOINT LeftLeg
		{
			OFFSET 2.448110 -6.726130 0.000000 
			CHANNELS 3 Zrotation Yrotation Xrotation
			JOINT LeftFoot
			{
				OFFSET 2.562200 -7.039590 0.000000 
				CHANNELS 3 Zrotation Yrotation Xrotation
				JOINT LeftToeBase
				{
					OFFSET 0.157640 -0.433110 2.322550 
					CHANNELS 3 Zrotation Yrotation Xrotation
					End Site
					{
						OFFSET 0.000000 0.000000 0.000000 
					}
				}
			}
		}
	}
	JOINT RightUpLeg
	{
		OFFSET -1.305520 -1.794630 0.839290 
		CHANNELS 3 Zrotation Yrotation Xrotation
		JOINT RightLeg
		{
			OFFSET -2.542530 -6.985550 0.000000 
			CHANNELS 3 Zrotation Yrotation Xrotation
			JOINT RightFoot
			{
				OFFSET -2.568260 -7.056230 0.000000 
				CHANNELS 3 Zrotation Yrotation Xrotation
				JOINT RightToeBase
				{
					OFFSET -0.164730 -0.452590 2.363150 
					CHANNELS 3 Zrotation Yrotation Xrotation
					End Site
					{
						OFFSET 0.000000 0.000000 0.000000 
					}
				}
			}
		}
	}
	JOINT Spine
	{
		OFFSET 0.028270 2.035590 -0.193380 
		CHANNELS 3 Zrotation Yrotation Xrotation
		JOINT Spine1
		{
			OFFSET 0.056720 2.048850 -0.042750 
			CHANNELS 3 Zrotation Yrotation Xrotation
			JOINT Neck1
			{
				OFFSET -0.054170 1.746240 0.172020 
				CHANNELS 3 Zrotation Yrotation Xrotation
				JOINT Head
				{
					OFFSET 0.104070 1.761360 -0.123970 
					CHANNELS 3 Zrotation Yrotation Xrotation
					End Site
					{
						OFFSET 0.000000 0.000000 0.000000 
					}
				}
			}
			JOINT LeftArm
			{
				OFFSET 3.362410 1.200890 -0.311210 
				CHANNELS 3 Zrotation Yrotation Xrotation
				JOINT LeftForeArm
				{
					OFFSET 4.983000 -0.000000 -0.000000 
					CHANNELS 3 Zrotation Yrotation Xrotation
					JOINT LeftHand
					{
						OFFSET 3.483560 -0.000000 -0.000000 
						CHANNELS 3 Zrotation Yrotation Xrotation
						JOINT LeftHandIndex1
						{
							OFFSET 0.715260 -0.000000 -0.000000 
							CHANNELS 3 Zrotation Yrotation Xrotation
							End Site
							{
								OFFSET 0.000000 0.000000 0.000000 
							}
						}
					}
				}
			}
			JOINT RightArm
			{
				OFFSET -3.136600 1.374050 -0.404650 
				CHANNELS 3 Zrotation Yrotation Xrotation
				JOINT RightForeArm
				{
					OFFSET -5.241900 -0.000000 -0.000000 
					CHANNELS 3 Zrotation Yrotation Xrotation
					JOINT RightHand
					{
						OFFSET -3.444170 -0.000000 -0.000000 
						CHANNELS 3 Zrotation Yrotation Xrotation
						JOINT RightHandIndex1
						{
							OFFSET -0.622530 -0.000000 -0.000000 
							CHANNELS 3 Zrotation Yrotation Xrotation
							End Site
							{
								OFFSET 0.000000 0.000000 0.000000 
							}
						}
					}
				}
			}
		}
	}
}
MOTION
Frames: 16
Frame Time: 0.041667
7.081263 16.909989 0.682268 66.412351 87.479920 53.699374 -2.465793 12.217018 -6.373387 5.504509 15.320479 46.292026 3.458255 -4.601276 -4.923000 0.604000 -4.974800 -13.836600 0.518115 -9.039774 -3.751435 -6.730909 -17.017797 50.190413 -1.228531 -0.366795 -12.365700 -0.561500 4.799700 -13.338200 0.218993 1.302847 -2.144447 -0.876744 0.231471 2.947303 5.736467 -0.213197 12.187489 0.063300 0.669800 15.414800 -24.064025 -53.106971 19.558183 22.984743 -30.491356 -9.844619 3.638190 -0.145915 0.500427 -7.125000 0.000000 0.000000 25.482727 52.337304 18.052748 -26.035819 35.560794 -10.279197 0.005917 3.206388 -3.860444 7.125000 0.000000 0.000000 
7.086627 16.909879 0.687413 63.464597 87.616394 50.687108 -2.247305 12.305469 -6.287416 5.526801 15.289214 46.279678 3.451794 -4.579597 -4.897595 0.643200 -5.130600 -14.281400 0.744032 -8.982206 -3.625649 -6.695458 -17.034908 50.128083 -1.250152 -0.301071 -12.361156 -0.526900 4.651600 -12.917400 0.229470 1.333738 -2.134206 -0.884660 0.240768 2.972339 5.706199 -0.236390 12.176285 0.011600 0.664800 15.380000 -24.062362 -53.114966 19.566924 22.914247 -30.444349 -9.815994 3.657147 -0.139156 0.555841 -7.125000 0.000000 0.000000 25.574068 52.358956 18.055539 -26.035151 35.565632 -10.285828 0.004560 3.206202 -3.815662 7.125000 0.000000 0.000000 
7.090131 16.908566 0.690588 62.193545 87.673285 49.344436 -2.145467 12.358018 -6.197988 5.529544 15.269401 46.257520 3.407211 -4.463028 -4.892951 0.689400 -5.308100 -14.789500 0.847533 -8.950069 -3.486904 -6.665477 -17.036759 50.061446 -1.239825 -0.335317 -12.382445 -0.521100 4.626500 -12.846400 0.232148 1.356288 -2.119080 -0.891459 0.249670 3.008081 5.715002 -0.207253 12.156274 0.014500 0.678000 15.323800 -24.030315 -53.161252 19.501464 22.845789 -30.402504 -9.789781 3.675033 -0.136850 0.623353 -7.125000 0.000000 0.000000 25.570450 52.401625 17.974450 -25.995342 35.549965 -10.274346 0.000851 3.207123 -3.849042 7.125000 0.000000 0.000000 
7.092211 16.906704 0.692121 63.914055 87.553428 51.018850 -2.273118 12.344131 -6.140126 5.509616 15.278722 46.243252 3.388009 -4.421021 -4.927151 0.678700 -5.267800 -14.674000 0.698856 -8.954265 -3.426898 -6.669895 -17.017938 50.048877 -1.216841 -0.402348 -12.374979 -0.551200 4.756000 -13.213900 0.222520 1.357548 -2.121301 -0.872860 0.252161 2.962439 5.734038 -0.163273 12.141445 0.039100 0.694800 15.298100 -24.034176 -53.146464 19.538585 22.814023 -30.365506 -9.762691 3.673472 -0.148668 0.633883 -7.125000 0.000000 0.000000 25.636990 52.390774 17.962785 -25.993368 35.535980 -10.273937 -0.000062 3.207300 -3.842552 7.125000 0.000000 0.000000 
7.093525 16.905500 0.695186 63.847164 87.523145 50.947179 -2.286015 12.340386 -6.125900 5.518963 15.286388 46.270736 3.431947 -4.541508 -4.929288 0.647500 -5.147500 -14.329700 0.690738 -8.936162 -3.433147 -6.670448 -17.019076 50.053370 -1.201895 -0.445854 -12.369098 -0.540300 4.709500 -13.081900 0.221172 1.357180 -2.113470 -0.831863 0.246158 3.005627 5.766863 -0.121174 12.113377 0.085000 0.704400 15.250000 -23.953975 -53.133163 19.459410 22.767882 -30.321432 -9.717632 3.652377 -0.173025 0.662748 -7.125000 0.000000 0.000000 25.651745 52.420422 17.903564 -26.001980 35.548016 -10.278229 -0.004468 3.202535 -3.753293 7.125000 0.000000 0.000000 
7.094510 16.904734 0.696938 62.043875 87.583300 49.162721 -2.194448 12.353281 -6.147909 5.552096 15.290100 46.332340 3.493085 -4.701221 -4.924436 0.618700 -5.034000 -14.005400 0.818942 -8.879039 -3.471795 -6.682319 -17.050363 50.120302 -1.239402 -0.341833 -12.411757 -0.493400 4.503500 -12.497800 0.229111 1.345140 -2.103403 -0.797362 0.231933 3.075049 5.799864 -0.062690 12.087190 0.139600 0.717900 15.205700 -23.865530 -53.092566 19.267699 22.713123 -30.281453 -9.683790 3.639829 -0.187703 0.734828 -7.125000 0.000000 0.000000 25.618077 52.508400 17.864325 -26.006858 35.568571 -10.281024 -0.011495 3.198901 -3.681838 7.125000 0.000000 0.000000 
7.096481 16.904405 0.697266 61.993252 87.614459 49.109973 -2.173605 12.343643 -6.148999 5.563894 15.295217 46.362512 3.491099 -4.686433 -4.985890 0.623800 -5.054300 -14.063600 0.845786 -8.900073 -3.468975 -6.688434 -17.056050 50.140794 -1.258735 -0.286925 -12.429702 -0.519200 4.618200 -12.822700 0.228403 1.320719 -2.119596 -0.820481 0.225126 2.965730 5.838272 -0.052387 12.076163 0.194300 0.719700 15.178300 -24.018813 -53.039796 19.311811 22.711096 -30.256573 -9.682344 3.654367 -0.223309 1.033635 -7.125000 0.000000 0.000000 25.793874 52.485656 17.971132 -26.043088 35.569259 -10.297563 -0.005007 3.201102 -3.606177 7.125000 0.000000 0.000000 
7.098342 16.902654 0.699018 62.165218 87.637948 49.267211 -2.139617 12.375062 -6.140188 5.565297 15.286599 46.351087 3.481751 -4.657124 -4.996489 0.639200 -5.115200 -14.237300 0.853186 -8.942525 -3.471195 -6.688184 -17.056337 50.146562 -1.211743 -0.428056 -12.445316 -0.572800 4.846800 -13.472200 0.217893 1.346232 -2.145615 -0.906914 0.252445 2.771794 5.861575 -0.130137 12.051586 0.211500 0.692900 15.131200 -24.277428 -53.066482 19.587705 22.737655 -30.229277 -9.676968 3.665464 -0.260616 1.330406 -7.125000 0.000000 0.000000 25.931416 52.323724 18.053216 -26.031275 35.520080 -10.289465 0.006809 3.208242 -3.589573 7.125000 0.000000 0.000000 
7.099436 16.900026 0.703506 61.311909 87.674433 48.386076 -2.055691 12.398605 -6.118939 5.583570 15.280198 46.369142 3.532707 -4.794284 -4.964164 0.619700 -5.037700 -14.016100 0.943389 -8.901338 -3.468486 -6.704898 -17.085968 50.231487 -1.188857 -0.509281 -12.526315 -0.569600 4.833600 -13.434600 0.216996 1.373489 -2.146454 -0.920337 0.266298 2.745419 5.872821 -0.151675 12.035309 0.217800 0.685200 15.120700 -24.290542 -53.098629 19.635098 22.689833 -30.168158 -9.632012 3.657060 -0.261456 1.349506 -7.125000 0.000000 0.000000 25.843195 52.302873 17.977137 -25.945459 35.449156 -10.243796 0.009509 3.211922 -3.621498 7.125000 0.000000 0.000000 
7.102392 16.898165 0.706900 60.768757 87.746729 47.824084 -1.978258 12.353789 -6.086742 5.596677 15.280617 46.390625 3.554597 -4.849614 -4.965771 0.625300 -5.060000 -14.079900 1.055634 -8.885718 -3.441331 -6.715417 -17.110729 50.292935 -1.192998 -0.510304 -12.607307 -0.561000 4.797500 -13.331900 0.230923 1.331691 -2.134005 -0.848709 0.234218 2.836805 5.875504 -0.093800 12.034078 0.232400 0.701400 15.140000 -24.158239 -53.062258 19.421541 22.647944 -30.139287 -9.603070 3.645805 -0.303288 1.458147 -7.125000 0.000000 0.000000 25.792892 52.446520 17.939309 -25.892627 35.410079 -10.202295 0.025521 3.203443 -3.572434 7.125000 0.000000 0.000000 
7.104363 16.896413 0.707448 60.059191 87.846989 47.149606 -1.895052 12.328429 -6.111321 5.596777 15.271302 46.377284 3.516797 -4.748833 -4.906113 0.654900 -5.176300 -14.412100 1.162126 -8.914777 -3.472031 -6.693535 -17.108892 50.241722 -1.172131 -0.574922 -12.619376 -0.573500 4.849800 -13.480600 0.243527 1.300297 -2.128647 -0.832355 0.213970 2.895025 5.824361 -0.104948 12.012850 0.174200 0.690900 15.115000 -24.131241 -53.066161 19.284774 22.672768 -30.168740 -9.622082 3.649243 -0.356017 1.555490 -7.125000 0.000000 0.000000 25.785183 52.521617 17.904213 -25.865408 35.383885 -10.169782 0.048458 3.190672 -3.455539 7.125000 0.000000 0.000000 
7.104144 16.894552 0.708980 60.963551 87.808053 48.076096 -1.943187 12.339239 -6.134856 5.584180 15.274843 46.362665 3.469808 -4.627732 -4.895160 0.675200 -5.254200 -14.634900 1.103619 -8.931216 -3.494530 -6.687575 -17.092826 50.204541 -1.176903 -0.554778 -12.581422 -0.579800 4.875800 -13.554800 0.239976 1.302457 -2.120827 -0.823472 0.215129 2.938987 5.810915 -0.131346 11.975010 0.151600 0.676200 15.050100 -24.085776 -53.104134 19.183954 22.631065 -30.147148 -9.607220 3.651629 -0.331170 1.404626 -7.125000 0.000000 0.000000 25.742824 52.552724 17.786249 -25.821837 35.356372 -10.144355 0.054213 3.185185 -3.356357 7.125000 0.000000 0.000000 
7.104801 16.891815 0.710184 61.753679 87.720066 48.865661 -2.033391 12.356043 -6.131092 5.577908 15.286262 46.370782 3.454963 -4.585463 -4.969206 0.687400 -5.300700 -14.768300 1.002023 -8.922654 -3.494504 -6.707367 -17.092603 50.245421 -1.206300 -0.460035 -12.544301 -0.578100 4.868700 -13.534300 0.234127 1.298125 -2.107186 -0.772066 0.207051 3.021418 5.851518 -0.109886 11.959531 0.217800 0.673100 15.027200 -23.911555 -53.108228 18.970640 22.492110 -30.047801 -9.536462 3.642518 -0.255449 1.131833 -7.125000 0.000000 0.000000 25.648561 52.613061 17.681785 -25.810932 35.365028 -10.138555 0.061827 3.180552 -3.336230 7.125000 0.000000 0.000000 
7.106115 16.888641 0.711170 61.601183 87.716701 48.741862 -2.035806 12.362020 -6.172393 5.598113 15.301366 46.427139 3.490863 -4.674391 -5.016379 0.695100 -5.329400 -14.850600 1.001023 -8.927562 -3.547188 -6.717382 -17.098937 50.277093 -1.206328 -0.458531 -12.537460 -0.585400 4.899000 -13.620900 0.235242 1.289395 -2.101500 -0.740098 0.197508 3.076429 5.876204 -0.121277 11.941863 0.261100 0.657900 15.010100 -23.811549 -53.105673 18.810970 22.400420 -29.978485 -9.490294 3.638065 -0.213395 1.029559 -7.125000 0.000000 0.000000 25.553743 52.614782 17.618427 -25.859746 35.419207 -10.163332 0.068962 3.175254 -3.364682 7.125000 0.000000 0.000000 
7.106552 16.886341 0.712593 62.734139 87.710801 49.888804 -2.053449 12.337838 -6.213528 5.618126 15.325526 46.496669 3.527820 -4.771488 -5.043981 0.702600 -5.357700 -14.931600 0.972122 -8.980845 -3.580054 -6.714921 -17.086629 50.261786 -1.162179 -0.585979 -12.520446 -0.612300 5.008200 -13.932100 0.234503 1.279431 -2.104283 -0.752478 0.195406 3.059655 5.859994 -0.142257 11.913619 0.229200 0.651200 14.979300 -23.827691 -53.139026 18.734850 22.331681 -29.910898 -9.453812 3.646354 -0.201116 1.155798 -7.125000 0.000000 0.000000 25.498634 52.568753 17.587650 -25.902255 35.452590 -10.179501 0.074238 3.169363 -3.429734 7.125000 0.000000 0.000000 
7.105348 16.884590 0.715111 60.869824 87.858794 47.996776 -1.880105 12.318688 -6.203094 5.644269 15.313668 46.525429 3.538747 -4.797711 -4.999322 0.691700 -5.316800 -14.814300 1.181802 -8.976834 -3.571283 -6.694452 -17.107024 50.254166 -1.075516 -0.844219 -12.539738 -0.659500 5.194100 -14.463000 0.240763 1.287617 -2.109309 -0.803446 0.203290 2.991358 5.851980 -0.131074 11.896028 0.219700 0.657000 14.957300 -23.866778 -53.175927 18.719625 22.282329 -29.857066 -9.431173 3.661508 -0.184057 1.146865 -7.125000 0.000000 0.000000 25.468227 52.526524 17.559208 -25.902031 35.442694 -10.174114 0.081074 3.167760 -3.517172 7.125000 0.000000 0.000000 
